<?xml version="1.0" encoding="utf-8" ?>
<svg baseProfile="full" height="337" version="1.1" width="333" xmlns="http://www.w3.org/2000/svg" xmlns:ev="http://www.w3.org/2001/xml-events" xmlns:xlink="http://www.w3.org/1999/xlink"><defs /><path d="M 109,139 L 108,140 L 106,140 L 105,141 L 103,141 L 102,142 L 101,142 L 100,143 L 99,143 L 97,145 L 96,145 L 90,151 L 90,152 L 88,154 L 88,156 L 87,157 L 87,159 L 86,160 L 86,175 L 87,176 L 87,178 L 88,179 L 88,180 L 89,181 L 89,182 L 90,183 L 90,184 L 97,191 L 98,191 L 99,192 L 100,192 L 101,193 L 102,193 L 103,194 L 123,194 L 129,200 L 129,201 L 133,205 L 133,206 L 136,209 L 136,210 L 139,213 L 139,214 L 143,218 L 143,219 L 146,222 L 146,223 L 150,227 L 150,228 L 154,232 L 154,233 L 157,236 L 157,237 L 160,240 L 160,241 L 165,246 L 167,246 L 168,247 L 170,247 L 171,248 L 172,248 L 173,247 L 176,247 L 178,245 L 179,245 L 185,239 L 185,238 L 186,237 L 186,235 L 187,234 L 187,230 L 186,229 L 186,227 L 184,225 L 184,224 L 148,188 L 148,187 L 137,176 L 137,168 L 138,167 L 138,164 L 139,163 L 139,155 L 138,154 L 138,153 L 131,146 L 130,146 L 128,144 L 127,144 L 126,143 L 125,143 L 124,142 L 123,142 L 122,141 L 121,141 L 120,140 L 118,140 L 117,139 Z" fill="black" /><path d="M 210,127 L 209,128 L 207,128 L 206,129 L 205,129 L 204,130 L 203,130 L 197,136 L 197,137 L 196,138 L 196,139 L 195,140 L 195,142 L 194,143 L 194,154 L 195,155 L 195,157 L 196,158 L 196,159 L 197,160 L 197,161 L 203,167 L 204,167 L 206,169 L 208,169 L 209,170 L 211,170 L 212,171 L 217,171 L 218,170 L 222,170 L 223,169 L 224,169 L 225,168 L 226,168 L 233,161 L 233,160 L 234,159 L 234,157 L 235,156 L 235,154 L 236,153 L 236,144 L 235,143 L 235,141 L 234,140 L 234,138 L 232,136 L 232,135 L 228,131 L 227,131 L 225,129 L 224,129 L 223,128 L 221,128 L 220,127 Z" fill="black" /><path d="M 151,20 L 150,21 L 149,21 L 148,22 L 146,22 L 144,24 L 143,24 L 141,26 L 140,26 L 139,27 L 138,27 L 137,28 L 136,28 L 134,30 L 133,30 L 132,31 L 131,31 L 129,33 L 128,33 L 127,34 L 126,34 L 124,36 L 123,36 L 122,37 L 121,37 L 120,38 L 119,38 L 117,40 L 116,40 L 115,41 L 114,41 L 112,43 L 111,43 L 110,44 L 109,44 L 108,45 L 107,45 L 105,47 L 104,47 L 103,48 L 102,48 L 100,50 L 99,50 L 98,51 L 97,51 L 96,52 L 95,52 L 93,54 L 92,54 L 91,55 L 90,55 L 89,56 L 88,56 L 86,58 L 85,58 L 84,59 L 83,59 L 81,61 L 80,61 L 79,62 L 78,62 L 77,63 L 76,63 L 74,65 L 73,65 L 72,66 L 71,66 L 70,67 L 69,67 L 67,69 L 66,69 L 65,70 L 64,70 L 63,71 L 62,71 L 60,73 L 59,73 L 58,74 L 57,74 L 56,75 L 55,75 L 53,77 L 52,77 L 51,78 L 50,78 L 48,80 L 47,80 L 46,81 L 45,81 L 44,82 L 43,82 L 41,84 L 40,84 L 39,85 L 38,85 L 36,87 L 35,87 L 31,91 L 31,92 L 30,93 L 30,94 L 29,95 L 29,96 L 28,97 L 28,99 L 27,100 L 27,224 L 28,225 L 28,227 L 29,228 L 29,229 L 31,231 L 31,232 L 35,236 L 36,236 L 38,238 L 39,238 L 40,239 L 41,239 L 43,241 L 44,241 L 45,242 L 46,242 L 47,243 L 48,243 L 50,245 L 51,245 L 52,246 L 53,246 L 55,248 L 56,248 L 57,249 L 58,249 L 59,250 L 60,250 L 62,252 L 63,252 L 64,253 L 65,253 L 67,255 L 68,255 L 69,256 L 70,256 L 71,257 L 72,257 L 74,259 L 75,259 L 76,260 L 77,260 L 78,261 L 79,261 L 81,263 L 82,263 L 83,264 L 84,264 L 86,266 L 87,266 L 88,267 L 89,267 L 90,268 L 91,268 L 93,270 L 94,270 L 95,271 L 96,271 L 98,273 L 99,273 L 100,274 L 101,274 L 102,275 L 103,275 L 105,277 L 106,277 L 108,279 L 109,279 L 110,280 L 111,280 L 113,282 L 114,282 L 115,283 L 116,283 L 117,284 L 118,284 L 119,285 L 126,285 L 127,284 L 129,284 L 131,282 L 132,282 L 135,279 L 135,278 L 136,277 L 136,276 L 137,275 L 137,267 L 136,266 L 136,265 L 135,264 L 135,263 L 132,260 L 131,260 L 129,258 L 128,258 L 127,257 L 126,257 L 124,255 L 123,255 L 122,254 L 121,254 L 120,253 L 119,253 L 117,251 L 116,251 L 115,250 L 114,250 L 112,248 L 111,248 L 110,247 L 109,247 L 107,245 L 106,245 L 105,244 L 104,244 L 102,242 L 101,242 L 100,241 L 99,241 L 97,239 L 96,239 L 95,238 L 94,238 L 92,236 L 91,236 L 90,235 L 89,235 L 88,234 L 87,234 L 85,232 L 84,232 L 83,231 L 82,231 L 80,229 L 79,229 L 78,228 L 77,228 L 75,226 L 74,226 L 73,225 L 72,225 L 70,223 L 69,223 L 68,222 L 67,222 L 65,220 L 64,220 L 63,219 L 62,219 L 60,217 L 59,217 L 58,216 L 57,216 L 55,214 L 55,112 L 54,111 L 54,110 L 55,109 L 55,108 L 56,107 L 57,107 L 58,106 L 59,106 L 60,105 L 61,105 L 63,103 L 64,103 L 65,102 L 66,102 L 68,100 L 69,100 L 70,99 L 71,99 L 73,97 L 74,97 L 75,96 L 76,96 L 78,94 L 79,94 L 80,93 L 81,93 L 82,92 L 83,92 L 85,90 L 86,90 L 87,89 L 88,89 L 89,88 L 90,88 L 92,86 L 93,86 L 94,85 L 95,85 L 96,84 L 97,84 L 98,83 L 99,83 L 101,81 L 102,81 L 103,80 L 104,80 L 106,78 L 107,78 L 108,77 L 109,77 L 110,76 L 111,76 L 113,74 L 114,74 L 115,73 L 116,73 L 118,71 L 119,71 L 120,70 L 121,70 L 122,69 L 123,69 L 125,67 L 126,67 L 127,66 L 128,66 L 130,64 L 131,64 L 132,63 L 133,63 L 135,61 L 136,61 L 137,60 L 138,60 L 140,58 L 141,58 L 142,57 L 143,57 L 145,55 L 146,55 L 147,54 L 148,54 L 149,53 L 150,53 L 152,51 L 153,51 L 154,50 L 156,50 L 158,52 L 159,52 L 160,53 L 161,53 L 162,54 L 163,54 L 165,56 L 166,56 L 167,57 L 168,57 L 169,58 L 170,58 L 172,60 L 173,60 L 174,61 L 175,61 L 177,63 L 178,63 L 179,64 L 180,64 L 181,65 L 182,65 L 184,67 L 185,67 L 186,68 L 187,68 L 188,69 L 189,69 L 191,71 L 192,71 L 193,72 L 194,72 L 196,74 L 197,74 L 198,75 L 199,75 L 201,77 L 202,77 L 203,78 L 204,78 L 205,79 L 206,79 L 208,81 L 209,81 L 210,82 L 211,82 L 212,83 L 213,83 L 215,85 L 216,85 L 217,86 L 218,86 L 219,87 L 220,87 L 222,89 L 223,89 L 224,90 L 225,90 L 226,91 L 227,91 L 229,93 L 230,93 L 231,94 L 232,94 L 234,96 L 235,96 L 236,97 L 237,97 L 238,98 L 239,98 L 241,100 L 242,100 L 243,101 L 244,101 L 245,102 L 246,102 L 248,104 L 249,104 L 250,105 L 251,105 L 253,107 L 254,107 L 256,109 L 256,233 L 253,236 L 252,236 L 251,237 L 250,237 L 248,239 L 247,239 L 246,240 L 245,240 L 244,241 L 243,241 L 241,243 L 240,243 L 239,244 L 238,244 L 237,245 L 236,245 L 234,247 L 233,247 L 232,248 L 231,248 L 229,250 L 228,250 L 227,251 L 226,251 L 224,253 L 223,253 L 222,254 L 221,254 L 219,256 L 218,256 L 217,257 L 216,257 L 214,259 L 213,259 L 212,260 L 211,260 L 210,261 L 209,261 L 207,263 L 206,263 L 205,264 L 204,264 L 202,266 L 201,266 L 200,267 L 199,267 L 197,269 L 196,269 L 195,270 L 194,270 L 192,272 L 191,272 L 190,273 L 189,273 L 187,275 L 186,275 L 185,276 L 184,276 L 183,277 L 182,277 L 180,279 L 179,279 L 178,280 L 177,280 L 175,282 L 174,282 L 173,283 L 172,283 L 170,285 L 169,285 L 168,286 L 167,286 L 165,288 L 164,288 L 163,289 L 162,289 L 161,290 L 160,290 L 159,291 L 158,291 L 156,293 L 155,293 L 154,294 L 151,294 L 149,296 L 148,296 L 144,300 L 144,301 L 143,302 L 143,304 L 142,305 L 142,312 L 143,313 L 143,314 L 144,315 L 144,316 L 148,320 L 149,320 L 150,321 L 151,321 L 152,322 L 161,322 L 162,321 L 163,321 L 164,320 L 165,320 L 166,319 L 167,319 L 168,318 L 169,318 L 171,316 L 172,316 L 173,315 L 174,315 L 176,313 L 177,313 L 178,312 L 179,312 L 181,310 L 182,310 L 183,309 L 184,309 L 185,308 L 186,308 L 188,306 L 189,306 L 190,305 L 191,305 L 193,303 L 194,303 L 195,302 L 196,302 L 197,301 L 198,301 L 200,299 L 201,299 L 202,298 L 203,298 L 205,296 L 206,296 L 207,295 L 208,295 L 210,293 L 211,293 L 212,292 L 213,292 L 214,291 L 215,291 L 217,289 L 218,289 L 219,288 L 220,288 L 222,286 L 223,286 L 224,285 L 225,285 L 227,283 L 228,283 L 229,282 L 230,282 L 232,280 L 233,280 L 234,279 L 235,279 L 236,278 L 237,278 L 239,276 L 240,276 L 241,275 L 242,275 L 243,274 L 244,274 L 246,272 L 247,272 L 248,271 L 249,271 L 251,269 L 252,269 L 253,268 L 254,268 L 256,266 L 257,266 L 258,265 L 259,265 L 261,263 L 262,263 L 263,262 L 264,262 L 265,261 L 266,261 L 268,259 L 269,259 L 270,258 L 271,258 L 273,256 L 274,256 L 280,250 L 280,249 L 281,248 L 281,247 L 282,246 L 282,244 L 283,243 L 283,100 L 282,99 L 282,97 L 281,96 L 281,95 L 280,94 L 280,93 L 279,92 L 279,91 L 274,86 L 273,86 L 271,84 L 270,84 L 269,83 L 268,83 L 267,82 L 266,82 L 264,80 L 263,80 L 262,79 L 261,79 L 260,78 L 259,78 L 257,76 L 256,76 L 255,75 L 254,75 L 253,74 L 252,74 L 250,72 L 249,72 L 248,71 L 247,71 L 245,69 L 244,69 L 243,68 L 242,68 L 241,67 L 240,67 L 238,65 L 237,65 L 236,64 L 235,64 L 234,63 L 233,63 L 231,61 L 230,61 L 229,60 L 228,60 L 226,58 L 225,58 L 224,57 L 223,57 L 222,56 L 221,56 L 220,55 L 219,55 L 217,53 L 216,53 L 215,52 L 214,52 L 212,50 L 211,50 L 210,49 L 209,49 L 208,48 L 207,48 L 205,46 L 204,46 L 203,45 L 202,45 L 200,43 L 199,43 L 198,42 L 197,42 L 195,40 L 194,40 L 193,39 L 192,39 L 191,38 L 190,38 L 188,36 L 187,36 L 186,35 L 185,35 L 183,33 L 182,33 L 181,32 L 180,32 L 179,31 L 178,31 L 176,29 L 175,29 L 174,28 L 173,28 L 172,27 L 171,27 L 169,25 L 168,25 L 166,23 L 165,23 L 164,22 L 163,22 L 162,21 L 160,21 L 159,20 Z" fill="black" /></svg>